<svg className="icon" id="svg" xmlns="http://www.w3.org/2000/svg" 
xmlns:xlink="http://www.w3.org/1999/xlink" width="400" height="400" 
fill='current' stroke='current' viewBox="0, 0, 400,400">

<g id="svgg">

<path id="path0" d="M111.389 4.492 C 104.037 19.381,102.344 29.241,102.344 57.152 L 102.344 78.942 98.841 84.979 C 63.560 145.787,97.551 219.067,173.701 246.364 C 174.933 246.805,174.471 247.604,170.428 252.016 C 162.141 261.060,155.988 275.500,153.821 290.989 L 152.888 297.656 143.771 297.656 C 126.942 297.656,124.765 295.914,115.946 275.391 C 102.301 243.636,93.925 237.978,61.241 238.433 C 39.198 238.741,33.815 241.058,28.078 252.711 C 19.455 270.227,31.334 288.323,52.381 289.737 C 62.590 290.423,62.571 290.403,69.149 308.203 C 83.129 346.036,99.649 357.813,138.741 357.813 L 153.125 357.813 153.125 378.906 L 153.125 400.000 230.111 400.000 L 307.098 400.000 306.856 342.773 L 306.615 285.547 304.472 278.675 C 300.917 267.271,296.072 258.710,288.804 250.990 C 285.420 247.396,285.133 246.839,286.423 246.376 C 362.836 218.942,396.948 144.899,361.028 84.437 L 357.931 79.223 357.630 54.260 C 357.286 25.789,356.557 21.325,349.914 7.028 L 346.573 -0.163 332.075 0.177 C 310.622 0.680,298.100 5.404,284.844 17.996 L 279.156 23.399 271.414 21.505 C 245.441 15.150,215.509 15.117,189.497 21.413 L 181.728 23.294 176.997 18.986 C 161.715 5.073,148.163 0.015,126.139 0.005 L 113.607 0.000 111.389 4.492 M141.611 19.194 C 151.115 21.656,158.094 26.098,168.882 36.547 L 176.436 43.864 183.726 41.540 C 213.137 32.167,247.019 32.167,276.430 41.540 L 283.720 43.864 291.274 36.547 C 305.039 23.214,313.884 18.756,329.133 17.467 L 334.960 16.975 336.210 20.792 C 339.785 31.707,340.028 34.005,340.413 60.524 L 340.787 86.282 342.947 89.430 C 381.739 145.973,341.138 216.665,259.027 235.545 L 249.694 237.691 263.749 251.529 C 289.808 277.189,289.063 274.677,289.063 336.883 L 289.063 382.813 230.138 382.813 L 171.213 382.813 170.958 367.773 C 170.682 351.508,170.081 348.975,165.506 344.818 C 160.792 340.535,159.506 340.291,139.063 339.805 C 117.664 339.297,115.746 338.892,106.527 332.928 C 96.712 326.579,92.938 320.798,85.378 300.539 C 76.865 277.727,70.642 271.875,54.898 271.875 C 47.130 271.875,43.750 269.456,43.750 263.897 C 43.750 257.340,47.813 255.469,62.046 255.469 C 84.572 255.469,89.300 258.746,98.769 280.926 C 111.383 310.470,118.175 315.557,145.079 315.610 C 162.245 315.643,169.330 311.091,170.718 299.137 C 173.270 277.153,177.505 269.392,197.265 250.492 C 204.395 243.672,210.078 237.942,209.894 237.759 C 209.710 237.575,203.454 235.898,195.991 234.032 C 117.492 214.407,79.412 144.523,117.203 89.440 L 119.356 86.302 119.746 60.534 C 120.146 34.046,120.404 31.607,123.946 20.792 L 125.196 16.975 131.023 17.467 C 134.228 17.738,138.992 18.515,141.611 19.194 " ></path></g></svg>
