<svg className="icon" id="svg" version="1.1" xmlns="http://www.w3.org/2000/svg" xmlns:xlink="http://www.w3.org/1999/xlink" width="400" height="400" viewBox="0, 0, 400,400"><g id="svgg"><path id="path0" d="M80.469 1.666 C 38.606 10.436,8.182 42.151,0.804 84.714 C -0.974 94.967,-0.232 309.943,1.613 319.018 C 9.914 359.868,40.132 390.086,80.982 398.387 C 93.409 400.913,306.591 400.913,319.018 398.387 C 359.868 390.086,390.086 359.868,398.387 319.018 C 400.232 309.943,400.974 94.967,399.196 84.714 C 391.777 41.914,361.154 10.176,319.018 1.613 C 306.845 -0.861,92.302 -0.813,80.469 1.666 M316.016 35.759 C 340.513 42.679,357.787 60.091,364.249 84.375 L 366.016 91.016 366.016 200.000 L 366.016 308.984 364.249 315.625 C 357.736 340.102,340.102 357.736,315.625 364.249 L 308.984 366.016 200.000 366.016 L 91.016 366.016 84.375 364.249 C 59.898 357.736,42.264 340.102,35.751 315.625 L 33.984 308.984 33.984 200.000 L 33.984 91.016 35.751 84.375 C 42.753 58.062,62.653 39.626,89.329 34.740 C 93.792 33.923,116.628 33.744,202.344 33.855 L 309.766 33.994 316.016 35.759 M299.104 68.218 C 275.540 78.123,278.626 111.495,303.558 116.400 C 332.306 122.056,345.504 81.621,319.120 68.721 C 313.422 65.935,305.037 65.725,299.104 68.218 M182.262 101.198 C 104.018 115.507,72.474 211.886,127.326 269.048 C 189.985 334.344,299.995 290.353,299.995 200.000 C 299.995 137.485,243.427 90.013,182.262 101.198 M216.016 135.918 C 265.181 148.557,282.569 208.753,247.697 245.599 C 215.970 279.124,160.144 270.007,140.268 228.056 C 116.604 178.110,162.582 122.183,216.016 135.918 " stroke="" fill="" fill-rule="evenodd"></path></g></svg>
