<svg className="icon" id="svg" version="1.1" xmlns="http://www.w3.org/2000/svg" xmlns:xlink="http://www.w3.org/1999/xlink" width="400" height="400" viewBox="0, 0, 400,400"><g id="svgg"><path id="path0" d="M45.788 4.753 C 10.420 8.747,-10.766 47.983,5.116 80.078 C 21.045 112.269,63.701 119.244,89.129 93.816 C 124.368 58.578,95.446 -0.855,45.788 4.753 M61.015 23.764 C 86.700 31.560,94.821 62.176,76.155 80.842 C 54.848 102.149,17.969 86.855,17.969 56.713 C 17.969 34.781,40.498 17.536,61.015 23.764 M0.000 260.938 L 0.000 396.094 52.344 396.094 L 104.688 396.094 104.688 260.938 L 104.688 125.781 52.344 125.781 L 0.000 125.781 0.000 260.938 M139.063 260.938 L 139.063 396.094 191.388 396.094 L 243.713 396.094 243.927 319.319 L 244.141 242.544 246.708 237.329 C 257.363 215.689,288.089 218.689,294.151 241.961 C 295.140 245.759,295.313 257.544,295.313 321.258 L 295.313 396.094 347.656 396.094 L 400.000 396.094 400.000 307.376 C 400.000 208.475,400.105 210.593,394.365 194.141 C 373.790 135.176,301.572 107.830,249.659 139.347 L 243.750 142.935 243.750 134.358 L 243.750 125.781 191.406 125.781 L 139.063 125.781 139.063 260.938 M86.719 260.938 L 86.719 378.125 52.344 378.125 L 17.969 378.125 17.969 260.938 L 17.969 143.750 52.344 143.750 L 86.719 143.750 86.719 260.938 M225.964 164.985 L 226.172 186.220 234.592 176.899 C 239.223 171.773,246.055 165.028,249.773 161.911 C 291.937 126.561,359.015 147.390,377.603 201.605 C 382.037 214.537,382.031 214.417,382.031 299.712 L 382.031 378.125 347.656 378.125 L 313.281 378.125 313.270 310.352 C 313.257 235.249,313.384 237.305,308.152 227.349 C 291.731 196.100,245.419 197.157,230.154 229.128 C 225.784 238.280,225.781 238.331,225.781 311.081 L 225.781 378.125 191.406 378.125 L 157.031 378.125 157.031 260.938 L 157.031 143.750 191.394 143.750 L 225.756 143.750 225.964 164.985 " stroke="" fill="" fill-rule="evenodd"></path></g></svg>
